<mxfile host="app.diagrams.net" agent="Mozilla/5.0 (Windows NT 10.0; Win64; x64) AppleWebKit/537.36 (KHTML, like Gecko) Chrome/134.0.0.0 Safari/537.36" version="26.1.3">
  <diagram name="Страница — 1" id="hi3maOYxdtd5-xxtNOdB">
    <mxGraphModel dx="1311" dy="666" grid="1" gridSize="10" guides="1" tooltips="1" connect="1" arrows="1" fold="1" page="1" pageScale="1" pageWidth="827" pageHeight="1169" math="0" shadow="0">
      <root>
        <mxCell id="0" />
        <mxCell id="1" parent="0" />
        <mxCell id="FxxYlGLEtM2QjZ5-GXDw-122" style="edgeStyle=orthogonalEdgeStyle;rounded=0;orthogonalLoop=1;jettySize=auto;html=1;fontSize=14;" edge="1" parent="1" source="FxxYlGLEtM2QjZ5-GXDw-123" target="FxxYlGLEtM2QjZ5-GXDw-125">
          <mxGeometry relative="1" as="geometry">
            <mxPoint x="370" y="140" as="targetPoint" />
          </mxGeometry>
        </mxCell>
        <mxCell id="FxxYlGLEtM2QjZ5-GXDw-123" value="Начало&amp;nbsp;&lt;div&gt;Display&lt;/div&gt;" style="rounded=1;whiteSpace=wrap;html=1;fontSize=14;" vertex="1" parent="1">
          <mxGeometry x="310" y="10" width="120" height="60" as="geometry" />
        </mxCell>
        <mxCell id="FxxYlGLEtM2QjZ5-GXDw-124" style="edgeStyle=orthogonalEdgeStyle;rounded=0;orthogonalLoop=1;jettySize=auto;html=1;fontSize=14;" edge="1" parent="1" source="FxxYlGLEtM2QjZ5-GXDw-125" target="FxxYlGLEtM2QjZ5-GXDw-128">
          <mxGeometry relative="1" as="geometry">
            <mxPoint x="370" y="220" as="targetPoint" />
          </mxGeometry>
        </mxCell>
        <mxCell id="FxxYlGLEtM2QjZ5-GXDw-125" value="Ввести lst" style="shape=parallelogram;perimeter=parallelogramPerimeter;whiteSpace=wrap;html=1;fixedSize=1;fontSize=14;" vertex="1" parent="1">
          <mxGeometry x="310" y="110" width="120" height="60" as="geometry" />
        </mxCell>
        <mxCell id="FxxYlGLEtM2QjZ5-GXDw-126" style="edgeStyle=orthogonalEdgeStyle;rounded=0;orthogonalLoop=1;jettySize=auto;html=1;fontSize=14;" edge="1" parent="1" source="FxxYlGLEtM2QjZ5-GXDw-128" target="FxxYlGLEtM2QjZ5-GXDw-134">
          <mxGeometry relative="1" as="geometry">
            <mxPoint x="370" y="470" as="targetPoint" />
            <Array as="points">
              <mxPoint x="481" y="250" />
              <mxPoint x="481" y="450" />
            </Array>
          </mxGeometry>
        </mxCell>
        <mxCell id="FxxYlGLEtM2QjZ5-GXDw-127" value="False" style="edgeLabel;html=1;align=center;verticalAlign=middle;resizable=0;points=[];fontSize=14;" vertex="1" connectable="0" parent="FxxYlGLEtM2QjZ5-GXDw-126">
          <mxGeometry x="-0.4773" y="-2" relative="1" as="geometry">
            <mxPoint as="offset" />
          </mxGeometry>
        </mxCell>
        <mxCell id="FxxYlGLEtM2QjZ5-GXDw-128" value="" style="shape=process;whiteSpace=wrap;html=1;backgroundOutline=1;fontSize=14;" vertex="1" parent="1">
          <mxGeometry x="300" y="210" width="140" height="80" as="geometry" />
        </mxCell>
        <mxCell id="FxxYlGLEtM2QjZ5-GXDw-129" style="edgeStyle=orthogonalEdgeStyle;rounded=0;orthogonalLoop=1;jettySize=auto;html=1;fontSize=14;" edge="1" parent="1" source="FxxYlGLEtM2QjZ5-GXDw-131">
          <mxGeometry relative="1" as="geometry">
            <mxPoint x="370" y="340" as="targetPoint" />
          </mxGeometry>
        </mxCell>
        <mxCell id="FxxYlGLEtM2QjZ5-GXDw-130" value="True" style="edgeLabel;html=1;align=center;verticalAlign=middle;resizable=0;points=[];fontSize=14;" vertex="1" connectable="0" parent="FxxYlGLEtM2QjZ5-GXDw-129">
          <mxGeometry x="-0.01" y="-1" relative="1" as="geometry">
            <mxPoint x="-1" y="-1" as="offset" />
          </mxGeometry>
        </mxCell>
        <mxCell id="FxxYlGLEtM2QjZ5-GXDw-131" value="IsEmpty(list)" style="rhombus;whiteSpace=wrap;html=1;fontSize=14;" vertex="1" parent="1">
          <mxGeometry x="320" y="210" width="100" height="80" as="geometry" />
        </mxCell>
        <mxCell id="FxxYlGLEtM2QjZ5-GXDw-132" value="йоу тут пусто" style="shape=parallelogram;perimeter=parallelogramPerimeter;whiteSpace=wrap;html=1;fixedSize=1;fontSize=14;" vertex="1" parent="1">
          <mxGeometry x="310" y="340" width="120" height="60" as="geometry" />
        </mxCell>
        <mxCell id="FxxYlGLEtM2QjZ5-GXDw-133" style="edgeStyle=orthogonalEdgeStyle;rounded=0;orthogonalLoop=1;jettySize=auto;html=1;fontSize=14;" edge="1" parent="1" source="FxxYlGLEtM2QjZ5-GXDw-134" target="FxxYlGLEtM2QjZ5-GXDw-136">
          <mxGeometry relative="1" as="geometry">
            <mxPoint x="355" y="570" as="targetPoint" />
          </mxGeometry>
        </mxCell>
        <mxCell id="FxxYlGLEtM2QjZ5-GXDw-134" value="Вот что в списке:" style="shape=parallelogram;perimeter=parallelogramPerimeter;whiteSpace=wrap;html=1;fixedSize=1;fontSize=14;" vertex="1" parent="1">
          <mxGeometry x="270" y="480" width="170" height="60" as="geometry" />
        </mxCell>
        <mxCell id="FxxYlGLEtM2QjZ5-GXDw-135" style="edgeStyle=orthogonalEdgeStyle;rounded=0;orthogonalLoop=1;jettySize=auto;html=1;fontSize=14;" edge="1" parent="1" source="FxxYlGLEtM2QjZ5-GXDw-136" target="FxxYlGLEtM2QjZ5-GXDw-138">
          <mxGeometry relative="1" as="geometry">
            <mxPoint x="355" y="650" as="targetPoint" />
          </mxGeometry>
        </mxCell>
        <mxCell id="FxxYlGLEtM2QjZ5-GXDw-136" value="i = 1&lt;div&gt;pos = myList.first&lt;/div&gt;" style="rounded=0;whiteSpace=wrap;html=1;fontSize=14;" vertex="1" parent="1">
          <mxGeometry x="295" y="570" width="120" height="40" as="geometry" />
        </mxCell>
        <mxCell id="FxxYlGLEtM2QjZ5-GXDw-137" style="edgeStyle=orthogonalEdgeStyle;rounded=0;orthogonalLoop=1;jettySize=auto;html=1;fontSize=14;" edge="1" parent="1" source="FxxYlGLEtM2QjZ5-GXDw-138" target="FxxYlGLEtM2QjZ5-GXDw-140">
          <mxGeometry relative="1" as="geometry">
            <mxPoint x="355" y="730" as="targetPoint" />
          </mxGeometry>
        </mxCell>
        <mxCell id="FxxYlGLEtM2QjZ5-GXDw-138" value="&lt;div&gt;Цикл1&lt;/div&gt;i = myList.count" style="strokeWidth=2;html=1;shape=mxgraph.flowchart.loop_limit;whiteSpace=wrap;fontSize=14;" vertex="1" parent="1">
          <mxGeometry x="300" y="640" width="110" height="60" as="geometry" />
        </mxCell>
        <mxCell id="FxxYlGLEtM2QjZ5-GXDw-139" style="edgeStyle=orthogonalEdgeStyle;rounded=0;orthogonalLoop=1;jettySize=auto;html=1;fontSize=14;" edge="1" parent="1" source="FxxYlGLEtM2QjZ5-GXDw-140">
          <mxGeometry relative="1" as="geometry">
            <mxPoint x="355" y="820" as="targetPoint" />
          </mxGeometry>
        </mxCell>
        <mxCell id="FxxYlGLEtM2QjZ5-GXDw-140" value="f = myList.nodes[pos].data, &#39; &#39;" style="rounded=0;whiteSpace=wrap;html=1;fontSize=14;" vertex="1" parent="1">
          <mxGeometry x="277.5" y="730" width="155" height="50" as="geometry" />
        </mxCell>
        <mxCell id="FxxYlGLEtM2QjZ5-GXDw-141" style="edgeStyle=orthogonalEdgeStyle;rounded=0;orthogonalLoop=1;jettySize=auto;html=1;fontSize=14;" edge="1" parent="1" source="FxxYlGLEtM2QjZ5-GXDw-142" target="FxxYlGLEtM2QjZ5-GXDw-144">
          <mxGeometry relative="1" as="geometry">
            <mxPoint x="355" y="920" as="targetPoint" />
          </mxGeometry>
        </mxCell>
        <mxCell id="FxxYlGLEtM2QjZ5-GXDw-142" value="Вывести f" style="shape=parallelogram;perimeter=parallelogramPerimeter;whiteSpace=wrap;html=1;fixedSize=1;fontSize=14;" vertex="1" parent="1">
          <mxGeometry x="295" y="820" width="120" height="60" as="geometry" />
        </mxCell>
        <mxCell id="FxxYlGLEtM2QjZ5-GXDw-143" style="edgeStyle=orthogonalEdgeStyle;rounded=0;orthogonalLoop=1;jettySize=auto;html=1;fontSize=14;" edge="1" parent="1" source="FxxYlGLEtM2QjZ5-GXDw-144" target="FxxYlGLEtM2QjZ5-GXDw-146">
          <mxGeometry relative="1" as="geometry">
            <mxPoint x="355" y="1030" as="targetPoint" />
          </mxGeometry>
        </mxCell>
        <mxCell id="FxxYlGLEtM2QjZ5-GXDw-144" value="pos = myList.nodes[pos].next" style="rounded=0;whiteSpace=wrap;html=1;fontSize=14;" vertex="1" parent="1">
          <mxGeometry x="277.5" y="920" width="155" height="60" as="geometry" />
        </mxCell>
        <mxCell id="FxxYlGLEtM2QjZ5-GXDw-145" style="edgeStyle=orthogonalEdgeStyle;rounded=0;orthogonalLoop=1;jettySize=auto;html=1;fontSize=14;" edge="1" parent="1" source="FxxYlGLEtM2QjZ5-GXDw-146" target="FxxYlGLEtM2QjZ5-GXDw-148">
          <mxGeometry relative="1" as="geometry">
            <mxPoint x="355" y="1100" as="targetPoint" />
          </mxGeometry>
        </mxCell>
        <mxCell id="FxxYlGLEtM2QjZ5-GXDw-146" value="i+=1" style="rounded=0;whiteSpace=wrap;html=1;fontSize=14;" vertex="1" parent="1">
          <mxGeometry x="295" y="1010" width="120" height="50" as="geometry" />
        </mxCell>
        <mxCell id="FxxYlGLEtM2QjZ5-GXDw-151" style="edgeStyle=orthogonalEdgeStyle;rounded=0;orthogonalLoop=1;jettySize=auto;html=1;entryX=0.5;entryY=0;entryDx=0;entryDy=0;fontSize=14;" edge="1" parent="1" source="FxxYlGLEtM2QjZ5-GXDw-148" target="FxxYlGLEtM2QjZ5-GXDw-150">
          <mxGeometry relative="1" as="geometry" />
        </mxCell>
        <mxCell id="FxxYlGLEtM2QjZ5-GXDw-148" value="Цикл1" style="strokeWidth=2;html=1;shape=mxgraph.flowchart.loop_limit;whiteSpace=wrap;direction=west;fontSize=14;" vertex="1" parent="1">
          <mxGeometry x="302.5" y="1100" width="105" height="60" as="geometry" />
        </mxCell>
        <mxCell id="FxxYlGLEtM2QjZ5-GXDw-149" value="Конец&amp;nbsp;&lt;div&gt;ShowList&lt;/div&gt;" style="rounded=1;whiteSpace=wrap;html=1;fontSize=14;" vertex="1" parent="1">
          <mxGeometry x="295" y="1290" width="120" height="60" as="geometry" />
        </mxCell>
        <mxCell id="FxxYlGLEtM2QjZ5-GXDw-152" style="edgeStyle=orthogonalEdgeStyle;rounded=0;orthogonalLoop=1;jettySize=auto;html=1;entryX=0.5;entryY=0;entryDx=0;entryDy=0;fontSize=14;" edge="1" parent="1" source="FxxYlGLEtM2QjZ5-GXDw-150" target="FxxYlGLEtM2QjZ5-GXDw-149">
          <mxGeometry relative="1" as="geometry" />
        </mxCell>
        <mxCell id="FxxYlGLEtM2QjZ5-GXDw-150" value="Всего элементов&lt;div&gt;myList.count&lt;/div&gt;" style="shape=parallelogram;perimeter=parallelogramPerimeter;whiteSpace=wrap;html=1;fixedSize=1;fontSize=14;" vertex="1" parent="1">
          <mxGeometry x="290" y="1200" width="120" height="60" as="geometry" />
        </mxCell>
      </root>
    </mxGraphModel>
  </diagram>
</mxfile>
